<svg width="108" height="108" viewBox="0 0 108 108" fill="none" xmlns="http://www.w3.org/2000/svg">
<g clip-path="url(#clip0_1_19)">
<path d="M20.8327 71.2055V107.22H27.1022V77.475H53.6391C53.2869 78.3762 53.0673 79.3745 53.0673 80.4704C53.0673 82.2541 53.8552 85.6098 59.1322 88.0455C61.4994 89.138 64.416 89.8601 67.5568 90.1495V97.3981H55.2965V107.22H61.5661V103.668H79.8173V107.22H86.0868V97.3981H73.8263V90.1495C76.9672 89.8601 79.8836 89.1383 82.2507 88.0455C87.5278 85.61 88.3157 82.2541 88.3157 80.4704C88.3157 79.3745 88.0962 78.3764 87.7439 77.475H95.5605V107.22H101.83V71.2055H20.8327Z" fill="#EEE0FF"/>
<path d="M87.9652 64.936C88.1946 63.9299 88.3161 62.8896 88.3161 61.8244C88.3161 57.6115 86.4653 53.195 83.2382 49.7075C79.7717 45.9612 75.316 43.8981 70.6916 43.8981C66.0672 43.8981 61.6114 45.9612 58.145 49.7075C54.9181 53.195 53.0673 57.6115 53.0673 61.8244C53.0673 62.8896 53.1887 63.9299 53.4182 64.936H87.9652Z" fill="#EEE0FF"/>
<path d="M33.4924 0.220398C18.9366 0.220398 7.0943 12.0625 7.0943 26.6185C7.0943 46.2064 32.4876 64.0846 33.4924 64.783C34.4972 64.0846 59.8904 46.2064 59.8904 26.6185C59.8904 12.0625 48.0483 0.220398 33.4924 0.220398ZM36.6271 45.7558H30.3576V39.4863H36.6271V45.7558ZM40.598 29.999C39.495 31.161 38.1237 32.0259 36.6271 32.5334V34.6332H30.3576V26.7829H33.4924C34.4687 26.7829 35.3776 26.3921 36.0512 25.6824C36.7243 24.9736 37.0668 24.0429 37.0161 23.0624C36.9208 21.2288 35.4056 19.7634 33.5668 19.7264C31.7837 19.6919 30.0458 21.0319 29.9637 23.2542H23.6941C23.6941 22.798 23.7259 22.3393 23.7886 21.8908C24.4734 16.9837 28.7411 13.3609 33.693 13.4581C38.8025 13.5609 43.0122 17.6369 43.277 22.7372C43.4181 25.4517 42.4666 28.0308 40.598 29.999Z" fill="#EEE0FF"/>
</g>
<defs>
<clipPath id="clip0_1_19">
<rect width="107" height="107" fill="white" transform="translate(0.96228 0.220398)"/>
</clipPath>
</defs>
</svg>
