<svg width="22" height="22" viewBox="0 0 22 22" fill="none" xmlns="http://www.w3.org/2000/svg">
<path d="M12.7387 14.4632C12.2008 14.0879 11.6259 13.7821 11.0247 13.5484C11.8245 12.8215 12.355 11.8032 12.4473 10.6631C13.6602 9.48133 15.25 8.83344 16.9544 8.83344C18.2849 8.83344 19.5624 9.23409 20.649 9.99192C21.0384 10.2635 21.5738 10.1682 21.8454 9.77875C22.1168 9.38951 22.0215 8.85392 21.6323 8.58251C21.0943 8.2072 20.5193 7.90155 19.918 7.66774C20.8006 6.8656 21.3555 5.70897 21.3555 4.42528C21.3555 2.00879 19.3897 0.0429688 16.9732 0.0429688C14.5568 0.0429688 12.591 2.00879 12.591 4.42528C12.591 5.70377 13.1414 6.8562 14.0179 7.65801C13.8979 7.70417 13.7785 7.75301 13.6604 7.80504C13.1226 8.04171 12.617 8.33275 12.1469 8.67449C11.4985 7.06366 9.91991 5.92365 8.0798 5.92365C5.66348 5.92365 3.69749 7.88947 3.69749 10.3058C3.69749 11.5808 4.24484 12.73 5.11663 13.5315C2.78575 14.4048 0.895793 16.2805 0.126384 18.6726C-0.128743 19.4659 0.0063732 20.3071 0.497157 20.9807C0.987941 21.6541 1.74728 22.0403 2.58047 22.0403H10.0562C10.5307 22.0403 10.9154 21.6556 10.9154 21.1809C10.9154 20.7064 10.5307 20.3217 10.0562 20.3217H2.58047C2.30268 20.3217 2.04957 20.193 1.88592 19.9684C1.72227 19.7438 1.67729 19.4633 1.76222 19.1988C2.61152 16.5582 5.20173 14.7141 8.061 14.7141C9.39136 14.7141 10.669 15.1148 11.7556 15.8726C12.1449 16.1442 12.6805 16.0487 12.9521 15.6594C13.2235 15.2702 13.1281 14.7346 12.7387 14.4632ZM16.9732 1.76155C18.442 1.76155 19.6369 2.95645 19.6369 4.42528C19.6369 5.89394 18.442 7.08901 16.9732 7.08901C15.5045 7.08901 14.3094 5.89394 14.3094 4.42528C14.3094 2.95645 15.5045 1.76155 16.9732 1.76155ZM8.0798 7.64206C9.54863 7.64206 10.7435 8.83713 10.7435 10.3058C10.7435 11.7746 9.54863 12.9695 8.0798 12.9695C6.61097 12.9695 5.41607 11.7746 5.41607 10.3058C5.41607 8.83713 6.61097 7.64206 8.0798 7.64206ZM22 17.9588C22 18.4333 21.6153 18.818 21.1406 18.818H18.7777V21.1809C18.7777 21.6556 18.393 22.0403 17.9185 22.0403C17.4438 22.0403 17.0591 21.6556 17.0591 21.1809V18.818H14.6962C14.2216 18.818 13.8369 18.4333 13.8369 17.9588C13.8369 17.4841 14.2216 17.0994 14.6962 17.0994H17.0591V14.7364C17.0591 14.2619 17.4438 13.8772 17.9185 13.8772C18.393 13.8772 18.7777 14.2619 18.7777 14.7364V17.0994H21.1406C21.6153 17.0994 22 17.4841 22 17.9588Z" fill="#D40000"/>
</svg>
