<svg width="22" height="22" viewBox="0 0 22 22" fill="none" xmlns="http://www.w3.org/2000/svg">
<g clip-path="url(#clip0_63_113)">
<path d="M7.18122 10.6483V8.91241C7.18122 6.46429 9.17289 4.47266 11.621 4.47266C12.7031 4.47266 13.6959 4.86203 14.4671 5.50778L15.4992 4.47566C14.807 3.87017 13.972 3.42416 13.0513 3.19456V1.43039C13.0514 0.640408 12.4109 0 11.621 0C10.831 0 10.1906 0.640408 10.1906 1.43039V3.19456C7.62722 3.83378 5.72791 6.15114 5.72791 8.91246V10.6483C5.72791 12.5042 4.99066 14.284 3.67836 15.5963C3.32714 15.9476 3.12612 16.4066 3.09283 16.882L6.79771 13.1771C7.04993 12.3692 7.18122 11.5189 7.18122 10.6483Z" fill="#770CCC"/>
<path d="M17.5141 10.6483V8.91242C17.5141 8.60565 17.4906 8.30435 17.4454 8.01025L16.0608 9.39487V10.6483C16.0608 12.9056 16.9398 15.0278 18.536 16.624C18.6977 16.7858 18.7457 17.0268 18.6581 17.2382C18.5706 17.4495 18.3662 17.586 18.1375 17.586H7.86954L6.41624 19.0393H8.66028C8.66028 20.6745 9.98583 22 11.621 22C13.2561 22 14.5816 20.6745 14.5816 19.0393H18.1374C18.9532 19.0393 19.6886 18.5479 20.0008 17.7943C20.3129 17.0407 20.1404 16.1731 19.5636 15.5963C18.2513 14.284 17.5141 12.5042 17.5141 10.6483ZM11.621 20.5467C10.7898 20.5467 10.1136 19.8705 10.1136 19.0393H13.1283C13.1283 19.8705 12.4521 20.5467 11.621 20.5467Z" fill="#770CCC"/>
<path d="M20.1983 2.5169C19.9145 2.23314 19.4544 2.23314 19.1707 2.5169L1.80172 19.8859C1.51796 20.1696 1.51796 20.6297 1.80172 20.9135C1.94363 21.0553 2.12959 21.1263 2.31556 21.1263C2.50153 21.1263 2.6875 21.0553 2.82936 20.9135L20.1983 3.54453C20.4821 3.26077 20.4821 2.80066 20.1983 2.5169Z" fill="#770CCC"/>
</g>
<defs>
<clipPath id="clip0_63_113">
<rect width="22" height="22" fill="white"/>
</clipPath>
</defs>
</svg>
