<svg width="107" height="107" viewBox="0 0 107 107" fill="none" xmlns="http://www.w3.org/2000/svg">
<path fill-rule="evenodd" clip-rule="evenodd" d="M63.4869 11.6555C67.9153 12.7094 72.145 14.4651 76.0212 16.8519L84.1662 13.2346L93.7659 22.8338L90.1494 30.9763C92.537 34.853 94.2927 39.0843 95.3466 43.5139L103.656 46.7122V60.2878L95.3447 63.4872C94.2908 67.9157 92.5351 72.1452 90.1485 76.0214L93.7659 84.1664L84.1664 93.7661L76.0241 90.1496C72.1473 92.5372 67.9162 94.2929 63.4865 95.3468L60.288 103.656H46.7124L43.5131 95.3445C39.0845 94.2906 34.855 92.5349 30.9788 90.1483L22.8338 93.7656L13.2341 84.1662L16.8506 76.0239C14.463 72.147 12.7075 67.9157 11.6534 63.4863L3.34375 60.288V46.7124L11.6546 43.5133C12.7085 39.0845 14.4642 34.8544 16.8512 30.9782L13.2341 22.8341L22.8336 13.2344L30.9784 16.8517C34.8546 14.4649 39.0843 12.7092 43.5126 11.6553L46.7124 3.34375H60.2878L63.4869 11.6555ZM53.6939 41.1024L31.6005 46.9711C30.9819 47.1354 30.9819 48.0188 31.6005 48.183L53.6937 54.0517C54.0248 54.1397 54.3284 54.1397 54.6594 54.0517L76.7526 48.183C77.3712 48.0188 77.3712 47.1356 76.7526 46.9711L54.6594 41.1024C54.3286 41.0146 54.0248 41.0146 53.6939 41.1024ZM29.1516 57.3723L28.6975 57.6343C28.2323 57.9029 27.9661 58.3641 27.9661 58.9012V64.1037C27.9661 64.6217 28.5558 64.9162 28.9698 64.6046L30.8233 63.2107L32.677 64.6046C33.091 64.916 33.6808 64.6215 33.6808 64.1035V58.901C33.6808 58.3639 33.4145 57.9027 32.9493 57.6341L32.4954 57.3721V51.88L30.7422 51.4143C30.1094 51.2463 29.5796 50.9585 29.1516 50.5905V57.3723ZM37.1798 53.1247V62.1992C37.1798 62.8096 37.6061 63.3218 38.2065 63.4324C56.9144 66.8905 51.4392 66.8905 70.1469 63.4324C70.7473 63.3218 71.1736 62.8098 71.1736 62.1992V53.1247L55.518 57.2835C54.6256 57.5204 53.7278 57.5204 52.8354 57.2835L37.1798 53.1247ZM53.5 20.5751C35.3161 20.5751 20.5749 35.3161 20.5749 53.5C20.5749 71.6839 35.3159 86.4251 53.5 86.4251C71.6839 86.4251 86.4249 71.6842 86.4249 53.5C86.4249 35.3161 71.6839 20.5751 53.5 20.5751Z" fill="#E6FAF6"/>
</svg>
