<svg width="22" height="22" viewBox="0 0 22 22" fill="none" xmlns="http://www.w3.org/2000/svg">
<g clip-path="url(#clip0_81_31)">
<path d="M6.93627 7.23254C4.57453 7.23254 2.65314 9.15393 2.65314 11.5157C2.65314 13.8774 4.57453 15.7988 6.93627 15.7988C9.298 15.7988 11.2194 13.8774 11.2194 11.5157C11.2194 9.15393 9.298 7.23254 6.93627 7.23254ZM6.93627 14.5097C5.28532 14.5097 3.94221 13.1666 3.94221 11.5157C3.94221 9.86472 5.28532 8.52161 6.93627 8.52161C8.58721 8.52161 9.93033 9.86472 9.93033 11.5157C9.93033 13.1666 8.58721 14.5097 6.93627 14.5097Z" fill="#8E9A00"/>
<path d="M6.70471 11.3708L6.09017 10.7562L5.17868 11.6677L6.70471 13.1938L8.92843 10.9701L8.01693 10.0586L6.70471 11.3708Z" fill="#8E9A00"/>
<path d="M18.1118 15.1933V15.1365C18.2291 15.0461 18.342 14.9487 18.4488 14.8427C19.1203 14.1761 19.4901 13.288 19.4901 12.3418V9.02073C19.4901 7.07773 17.9094 5.49699 15.9664 5.49699C15.1828 5.49699 14.4583 5.75437 13.8725 6.18862V1.375H8.78762C8.54739 0.58025 7.80837 0 6.93627 0C6.06418 0 5.32516 0.58025 5.08492 1.375H0V19.0781H9.94164C9.93592 19.1672 9.93274 19.2568 9.93274 19.3473V22H22V19.3473C22 17.1441 20.2797 15.3352 18.1118 15.1933ZM16.8228 15.8333C16.8228 16.3056 16.4386 16.6897 15.9664 16.6897C15.4942 16.6897 15.11 16.3056 15.11 15.8333V15.7579C15.3762 15.8256 15.6539 15.8633 15.9398 15.8654C15.9488 15.8655 15.9576 15.8655 15.9667 15.8655C16.2591 15.8655 16.5461 15.8302 16.8228 15.7614V15.8333ZM17.5406 13.9278C17.1148 14.3505 16.5503 14.5818 15.9494 14.5764C14.7266 14.5674 13.7317 13.5487 13.7317 12.3056V10.3403H13.9499C14.6725 10.3403 15.3719 10.1278 15.9668 9.73393C16.5611 10.1265 17.2595 10.3385 17.9807 10.3385H18.201V12.3418C18.201 12.9418 17.9665 13.5051 17.5406 13.9278ZM15.9664 6.7861C17.1986 6.7861 18.201 7.78856 18.201 9.02077V9.04943H17.9807C17.3953 9.04943 16.8333 8.83386 16.3975 8.44198L15.966 8.05355L15.5347 8.44237C15.0992 8.83506 14.5364 9.05132 13.9499 9.05132H13.7317V9.02077C13.7317 7.78856 14.7342 6.7861 15.9664 6.7861ZM12.5834 2.66406V3.95312H10.0461V2.66406H12.5834ZM5.11556 2.66406H6.29174V1.93359C6.29174 1.5782 6.58088 1.28906 6.93627 1.28906C7.29167 1.28906 7.5808 1.5782 7.5808 1.93359V2.66406H8.75699V3.95312H5.11556V2.66406ZM3.8265 2.66406V3.95312H1.28906V2.66406H3.8265ZM10.2353 17.7891H1.28906V5.24219H12.5834V8.03696C12.4924 8.34943 12.4427 8.6793 12.4427 9.02073V12.3056C12.4427 13.4498 12.984 14.4722 13.821 15.1247V15.1933C12.1949 15.2998 10.8207 16.344 10.2353 17.7891ZM20.7109 20.7109H11.2218V19.3473C11.2218 17.8215 12.4172 16.5702 13.9205 16.4792C14.1952 17.3476 15.0084 17.9788 15.9664 17.9788C16.9244 17.9788 17.7375 17.3476 18.0123 16.4792C19.5156 16.5702 20.7109 17.8215 20.7109 19.3473V20.7109Z" fill="#8E9A00"/>
</g>
<defs>
<clipPath id="clip0_81_31">
<rect width="22" height="22" fill="white"/>
</clipPath>
</defs>
</svg>
