<svg width="22" height="22" viewBox="0 0 22 22" fill="none" xmlns="http://www.w3.org/2000/svg">
<path d="M18.9426 15.5963C17.6303 14.284 16.8931 12.5042 16.8931 10.6483V8.91242C16.8931 6.15113 14.9938 3.83373 12.4304 3.19457V1.43035C12.4304 0.640425 11.79 0 11 0C10.21 0 9.56965 0.640425 9.56965 1.43035V3.19452C7.00625 3.83373 5.10697 6.15108 5.10697 8.91237V10.6483C5.10697 12.5041 4.36971 14.2839 3.05742 15.5963C2.4806 16.1731 2.30804 17.0406 2.62021 17.7943C2.93239 18.5479 3.66781 19.0393 4.48355 19.0393H8.03931C8.03931 20.6745 9.36488 22 11 22C12.6351 22 13.9607 20.6744 13.9607 19.0393H17.5164C18.3322 19.0393 19.0676 18.548 19.3798 17.7943C19.692 17.0406 19.5194 16.1732 18.9426 15.5963ZM11 20.5467C10.1688 20.5467 9.49262 19.8705 9.49262 19.0394H12.5074C12.5074 19.8705 11.8312 20.5467 11 20.5467ZM18.0371 17.2381C17.9496 17.4495 17.7452 17.586 17.5164 17.586H4.48355C4.2548 17.586 4.05042 17.4494 3.96288 17.2381C3.87534 17.0268 3.9233 16.7857 4.08505 16.624C5.68122 15.0278 6.56023 12.9056 6.56023 10.6483V8.91242C6.56023 6.46432 8.5519 4.47266 11 4.47266C13.4481 4.47266 15.4398 6.46432 15.4398 8.91242V10.6483C15.4398 12.9056 16.3188 15.0278 17.915 16.624C18.0767 16.7857 18.1247 17.0268 18.0371 17.2381Z" fill="#CFAE00"/>
</svg>
