<svg width="108" height="108" viewBox="0 0 108 108" fill="none" xmlns="http://www.w3.org/2000/svg">
<g clip-path="url(#clip0_1_7)">
<path d="M40.9534 48.5928C52.4953 48.5928 61.8519 39.2363 61.8519 27.6944C61.8519 16.1525 52.4953 6.79596 40.9534 6.79596C29.4115 6.79596 20.055 16.1525 20.055 27.6944C20.055 39.2363 29.4115 48.5928 40.9534 48.5928Z" fill="#E6FAF6"/>
<path d="M43.4351 67.4014H38.4717L35.8788 86.7609L40.9534 93.104L46.028 86.7609L43.4351 67.4014Z" fill="#E6FAF6"/>
<path d="M38.3844 61.1319H43.5225L44.5674 54.8624H37.3395L38.3844 61.1319Z" fill="#E6FAF6"/>
<path d="M29.4871 87.2568L32.5594 64.3174L30.9834 54.8624H25.2796C11.4294 54.8624 0.201477 66.0903 0.201477 79.9405V98.1221C0.201477 99.8534 1.60502 101.257 3.33624 101.257H39.4469L30.1462 89.6311C29.6116 88.963 29.3734 88.1051 29.4871 87.2568Z" fill="#E6FAF6"/>
<path d="M62.3871 55.5313C60.5376 55.0958 58.6099 54.8624 56.6273 54.8624H50.9235L49.3477 64.3174L52.42 87.2568C52.5337 88.1051 52.2955 88.963 51.7609 89.6313L42.46 101.257H58.7257C56.7533 98.6354 55.5824 95.3784 55.5824 91.8526V68.4464C55.5824 63.0934 58.2806 58.3601 62.3871 55.5313Z" fill="#E6FAF6"/>
<path d="M97.7972 59.0421H96.0208V53.8174C96.0208 49.7843 92.7395 46.503 88.7064 46.503H80.347C76.3138 46.503 73.0325 49.7843 73.0325 53.8174V59.0421H71.2562C66.0623 59.0421 61.8519 63.2525 61.8519 68.4464V70.5362H107.201V68.4464C107.201 63.2525 102.991 59.0421 97.7972 59.0421ZM89.7513 59.0421H79.3021V53.8174C79.3021 53.2413 79.7708 52.7725 80.347 52.7725H88.7064C89.2825 52.7725 89.7513 53.2413 89.7513 53.8174V59.0421Z" fill="#E6FAF6"/>
<path d="M61.8519 91.8526C61.8519 97.0465 66.0623 101.257 71.2562 101.257H97.7972C102.991 101.257 107.201 97.0465 107.201 91.8526V76.8057H61.8519V91.8526Z" fill="#E6FAF6"/>
</g>
<defs>
<clipPath id="clip0_1_7">
<rect width="107" height="107" fill="white" transform="translate(0.201477 0.526428)"/>
</clipPath>
</defs>
</svg>
