<!DOCTYPE svg PUBLIC "-//W3C//DTD SVG 1.1//EN" "http://www.w3.org/Graphics/SVG/1.1/DTD/svg11.dtd">
<!-- Uploaded to: SVG Repo, www.svgrepo.com, Transformed by: SVG Repo Mixer Tools -->
<svg width="107px" height="107px" viewBox="0 0 24 24" id="Layer_1" data-name="Layer 1" xmlns="http://www.w3.org/2000/svg" fill="#E6FAF6">
<g id="SVGRepo_bgCarrier" stroke-width="0"/>
<g id="SVGRepo_tracerCarrier" stroke-linecap="round" stroke-linejoin="round"/>
<g id="SVGRepo_iconCarrier">
<defs>
<style>.cls-1{fill:none;stroke:#E6FAF6;stroke-miterlimit:10;stroke-width:1.91px;}</style>
</defs>
<path class="cls-1" d="M12,12H22.5a10.45,10.45,0,0,1-3.07,7.42L12,12V1.48A10.5,10.5,0,1,0,19.43,19.4"/>
<path class="cls-1" d="M15.82,8.16h3.34a1.43,1.43,0,0,0,1.43-1.43h0A1.43,1.43,0,0,0,19.16,5.3h-1a1.44,1.44,0,0,1-1.43-1.44h0A1.43,1.43,0,0,1,18.2,2.43h3.35"/>
<line class="cls-1" x1="18.68" y1="0.52" x2="18.68" y2="2.43"/>
<line class="cls-1" x1="18.68" y1="8.16" x2="18.68" y2="10.07"/>
</g>
</svg>