<svg width="22" height="22" viewBox="0 0 22 22" fill="none" xmlns="http://www.w3.org/2000/svg">
<g clip-path="url(#clip0_107_21)">
<path d="M11 10.3125C12.4216 10.3125 13.5781 9.15595 13.5781 7.73438C13.5781 6.3128 12.4216 5.15625 11 5.15625C9.57842 5.15625 8.42188 6.3128 8.42188 7.73438C8.42188 9.15595 9.57842 10.3125 11 10.3125ZM11 6.875C11.4739 6.875 11.8594 7.26052 11.8594 7.73438C11.8594 8.20823 11.4739 8.59375 11 8.59375C10.5261 8.59375 10.1406 8.20823 10.1406 7.73438C10.1406 7.26052 10.5261 6.875 11 6.875Z" fill="black"/>
<path d="M18.7344 7.73438C18.7344 3.46964 15.2647 0 11 0C6.73527 0 3.26562 3.46964 3.26562 7.73438C3.26562 9.42154 3.79938 11.025 4.80923 12.3713L8.93673 17.8742C9.42154 18.5204 10.1929 18.9062 11 18.9062C11.8071 18.9062 12.5785 18.5204 13.0633 17.8741L17.1908 12.3713C18.2006 11.025 18.7344 9.42154 18.7344 7.73438ZM15.8158 11.34L11.6884 16.8427C11.524 17.0619 11.2731 17.1875 11 17.1875C10.7269 17.1875 10.476 17.0619 10.3116 16.8428L6.18419 11.34C5.39928 10.2935 4.98438 9.04668 4.98438 7.73438C4.98438 4.41736 7.68298 1.71875 11 1.71875C14.317 1.71875 17.0156 4.41736 17.0156 7.73438C17.0156 9.04668 16.6007 10.2935 15.8158 11.34Z" fill="black"/>
<path d="M15.2969 21.1406C15.2969 20.666 14.9121 20.2812 14.4375 20.2812H7.5625C7.08787 20.2812 6.70312 20.666 6.70312 21.1406C6.70312 21.6153 7.08787 22 7.5625 22H14.4375C14.9121 22 15.2969 21.6153 15.2969 21.1406Z" fill="black"/>
</g>
<defs>
<clipPath id="clip0_107_21">
<rect width="22" height="22" fill="white"/>
</clipPath>
</defs>
</svg>
