<svg width="22" height="22" viewBox="0 0 22 22" fill="none" xmlns="http://www.w3.org/2000/svg">
<g clip-path="url(#clip0_93_2)">
<path d="M18.3291 12.5145V6.20985C18.3291 5.69976 18.1234 5.1966 17.7621 4.83596L13.5225 0.573376C13.1595 0.207326 12.6579 -0.000600261 12.1439 1.3017e-06H2.88372C1.81487 1.3017e-06 0.945312 0.870505 0.945312 1.94047V17.9111C0.945312 18.9811 1.81487 19.8516 2.88372 19.8516H11.9295C12.8369 21.1495 14.3411 22 16.0401 22C18.8052 22 21.0547 19.7481 21.0547 16.9801C21.0547 15.0371 19.9462 13.3485 18.3291 12.5145ZM16.1353 5.02735H13.3286V2.20542L16.1353 5.02735ZM2.88372 18.5625C2.52493 18.5625 2.233 18.2703 2.233 17.9111V1.94047C2.233 1.58129 2.52493 1.28906 2.88372 1.28906H12.0409V5.67188C12.0409 6.02783 12.3292 6.31641 12.6847 6.31641H17.0414V12.0609C16.7178 11.9949 16.383 11.9602 16.0401 11.9602C13.2752 11.9602 11.0257 14.2121 11.0257 16.9801C11.0257 17.5328 11.1156 18.0648 11.2811 18.5625H2.88372ZM16.0401 20.7109C13.9852 20.7109 12.3133 19.0373 12.3133 16.9801C12.3133 14.9229 13.9852 13.2493 16.0401 13.2493C18.0951 13.2493 19.767 14.9229 19.767 16.9801C19.767 19.0373 18.0951 20.7109 16.0401 20.7109Z" fill="#CF0000"/>
<path d="M17.7649 15.2535C17.5135 15.0018 17.1058 15.0018 16.8544 15.2535L16.0402 16.0686L15.226 15.2535C14.9746 15.0018 14.5669 15.0018 14.3155 15.2535C14.064 15.5053 14.064 15.9133 14.3155 16.165L15.1297 16.9801L14.3155 17.7952C14.064 18.0469 14.064 18.455 14.3155 18.7067C14.5669 18.9584 14.9746 18.9584 15.226 18.7067L16.0402 17.8916L16.8544 18.7067C17.1058 18.9584 17.5135 18.9584 17.7649 18.7067C18.0164 18.455 18.0164 18.0469 17.7649 17.7952L16.9507 16.9801L17.7649 16.165C18.0163 15.9133 18.0163 15.5053 17.7649 15.2535Z" fill="#CF0000"/>
<path d="M4.59375 3.90765H9.68013C10.0357 3.90765 10.324 3.61908 10.324 3.26312C10.324 2.90717 10.0357 2.61859 9.68013 2.61859H4.59375C4.23818 2.61859 3.94991 2.90717 3.94991 3.26312C3.94991 3.61908 4.23818 3.90765 4.59375 3.90765Z" fill="#CF0000"/>
<path d="M4.59375 6.48578H9.68013C10.0357 6.48578 10.324 6.1972 10.324 5.84125C10.324 5.48529 10.0357 5.19672 9.68013 5.19672H4.59375C4.23818 5.19672 3.94991 5.48529 3.94991 5.84125C3.94991 6.1972 4.23818 6.48578 4.59375 6.48578Z" fill="#CF0000"/>
<path d="M4.59375 9.0639H14.6806C15.0362 9.0639 15.3245 8.77533 15.3245 8.41937C15.3245 8.06342 15.0362 7.77484 14.6806 7.77484H4.59375C4.23818 7.77484 3.94991 8.06342 3.94991 8.41937C3.94991 8.77533 4.23818 9.0639 4.59375 9.0639Z" fill="#CF0000"/>
<path d="M12.7491 10.9975C12.7491 10.6415 12.4609 10.353 12.1053 10.353H4.59375C4.23818 10.353 3.94991 10.6415 3.94991 10.9975C3.94991 11.3535 4.23818 11.642 4.59375 11.642H12.1052C12.4609 11.642 12.7491 11.3535 12.7491 10.9975Z" fill="#CF0000"/>
</g>
<defs>
<clipPath id="clip0_93_2">
<rect width="22" height="22" fill="white"/>
</clipPath>
</defs>
</svg>
