<svg width="108" height="108" viewBox="0 0 108 108" fill="none" xmlns="http://www.w3.org/2000/svg">
<g clip-path="url(#clip0_1_16)">
<path d="M45.5303 55.7008C60.2316 55.7008 72.1495 43.7829 72.1495 29.0816C72.1495 14.3803 60.2318 2.46222 45.5303 2.46222C30.8288 2.46222 18.9109 14.3801 18.9109 29.0814C18.9109 43.7828 30.8288 55.7008 45.5303 55.7008ZM58.4143 39.5816C57.2032 43.5854 52.016 46.5952 45.7992 46.5952C39.5822 46.5952 34.3949 43.5854 33.1842 39.5816H58.4143ZM106.894 84.5463L82.5397 104.843C81.8312 105.434 80.7182 105.383 80.0663 104.731L67.9405 92.6038C67.2266 91.8897 67.2266 90.7215 67.9407 90.0075L70.5365 87.4117C71.2503 86.6978 72.4187 86.6976 73.1326 87.4115L81.7038 95.9813L102.194 78.9059C102.97 78.2597 104.133 78.3653 104.78 79.141L107.13 81.9606C107.776 82.7362 107.67 83.8997 106.894 84.5463ZM65.0844 95.4596L69.7027 100.079C63.3996 100.966 55.4547 101.596 45.5304 101.596C19.8639 101.596 7.30347 97.4023 2.69863 95.3534C1.51044 94.8247 0.552856 93.3133 0.552856 92.0128V83.2381C0.552856 70.0895 10.564 59.1813 23.3384 57.7202C23.7266 57.6758 24.3023 57.8419 24.6186 58.0711C30.5085 62.3352 37.7194 64.8799 45.5303 64.8799C53.3411 64.8799 60.5521 62.335 66.442 58.0711C66.7584 57.8419 67.334 57.6758 67.7221 57.7202C80.4965 59.1811 90.5079 70.0894 90.5079 83.2381V83.3866L81.951 90.5167L75.9882 84.5559C74.8783 83.446 73.4029 82.8346 71.8343 82.8346C70.2656 82.8346 68.7902 83.446 67.6803 84.5559L65.0844 87.1518C62.7929 89.4429 62.7929 93.1685 65.0844 95.4596Z" fill="#DCF0FF"/>
</g>
<defs>
<clipPath id="clip0_1_16">
<rect width="107" height="107" fill="white" transform="translate(0.552856 0.358765)"/>
</clipPath>
</defs>
</svg>
