<svg width="22" height="23" viewBox="0 0 22 23" fill="none" xmlns="http://www.w3.org/2000/svg">
<g clip-path="url(#clip0_54_2)">
<path d="M21.9076 10.6681C21.8705 10.5939 20.9797 8.83288 19.2113 7.06444C14.3622 2.21519 7.64095 2.20864 2.78515 7.06444C1.01672 8.83288 0.125954 10.5939 0.0888595 10.6681C-0.03199 10.91 -0.03199 11.1948 0.0888595 11.4367C0.125954 11.5109 1.01672 13.2719 2.78515 15.0403C7.6344 19.8896 14.3555 19.8961 19.2113 15.0403C20.9797 13.2719 21.8705 11.5109 21.9076 11.4367C22.0284 11.1948 22.0284 10.91 21.9076 10.6681ZM17.9959 13.825C13.8952 17.9256 8.2838 18.0753 4.03745 13.8617C2.91774 12.7507 2.18073 11.6237 1.84151 11.0515C2.17486 10.4878 2.89509 9.38526 4.00052 8.27982C8.09195 4.18839 13.7042 4.02105 17.9591 8.24306C19.079 9.35421 19.816 10.4816 20.1549 11.0531C19.8216 11.6168 19.1013 12.7195 17.9959 13.825ZM10.9982 6.81284C8.66045 6.81284 6.75858 8.71471 6.75858 11.0523C6.75858 13.3901 8.66045 15.2919 10.9982 15.2919C13.336 15.2919 15.2378 13.3901 15.2378 11.0523C15.2378 8.71471 13.336 6.81284 10.9982 6.81284ZM10.9982 13.5732C9.60828 13.5732 8.47733 12.4422 8.47733 11.0523C8.47733 9.66237 9.60828 8.53159 10.9982 8.53159C12.3882 8.53159 13.5191 9.66237 13.5191 11.0523C13.5191 12.4424 12.3882 13.5732 10.9982 13.5732Z" fill="#3FA401"/>
</g>
<defs>
<clipPath id="clip0_54_2">
<rect width="22" height="22" fill="white" transform="translate(0 0.0734253)"/>
</clipPath>
</defs>
</svg>
