<svg width="22" height="22" viewBox="0 0 22 22" fill="none" xmlns="http://www.w3.org/2000/svg">
<g clip-path="url(#clip0_107_2)">
<path d="M18.7782 3.22185C16.7006 1.14417 13.9382 0 11 0C8.06181 0 5.29943 1.14417 3.22185 3.2218C1.14417 5.29943 0 8.06181 0 11C0 13.9382 1.14417 16.7006 3.22185 18.7782C5.29943 20.8558 8.06181 22 11 22C13.9383 22 16.7006 20.8558 18.7782 18.7782C20.8558 16.7006 22 13.9382 22 11C22 8.06177 20.8558 5.29943 18.7782 3.22185ZM4.13429 4.13429C5.10156 3.16702 6.2371 2.42924 7.47477 1.94769C7.14512 2.35925 6.83664 2.83229 6.55395 3.36433C6.22563 3.98222 5.94233 4.66083 5.70639 5.38567C4.88904 5.25002 4.13171 5.08321 3.45512 4.88745C3.66718 4.6268 3.89341 4.37517 4.13429 4.13429ZM2.67391 5.99781C3.46526 6.25119 4.37027 6.46488 5.35778 6.63413C5.08278 7.80142 4.92092 9.05753 4.88229 10.3548H1.3121C1.4135 8.79795 1.88109 7.31209 2.67391 5.99781ZM2.60365 15.8829C1.85363 14.5982 1.41045 13.1552 1.31205 11.6452H4.88474C4.92694 12.9054 5.08558 14.1258 5.3513 15.2626C4.3435 15.4259 3.41576 15.6342 2.60365 15.8829ZM4.13429 17.8658C3.86015 17.5916 3.60483 17.3037 3.36811 17.004C4.06949 16.8095 4.85359 16.6448 5.69762 16.5128C5.93524 17.2476 6.22159 17.9352 6.55391 18.5607C6.86199 19.1405 7.20072 19.65 7.56411 20.0863C6.2918 19.6058 5.12481 18.8562 4.13429 17.8658ZM10.3548 20.544C9.37477 20.2695 8.44767 19.3746 7.69348 17.9552C7.4297 17.4588 7.19801 16.9173 6.99954 16.3401C8.06216 16.2232 9.19288 16.154 10.3548 16.1378V20.544ZM10.3548 14.8473C9.06625 14.8649 7.81032 14.9458 6.63413 15.084C6.37468 14.0114 6.21858 12.8505 6.17574 11.6452H10.3548V14.8473H10.3548ZM10.3548 10.3548H6.17329C6.21243 9.11584 6.37103 7.92255 6.63856 6.82272C7.80722 6.96881 9.06054 7.05767 10.3548 7.08311V10.3548ZM10.3548 5.79254C9.18837 5.76904 8.06014 5.69298 7.00504 5.56889C7.20231 4.99775 7.43219 4.46167 7.69348 3.9698C8.44763 2.55046 9.37477 1.6555 10.3548 1.38098V5.79254ZM19.3668 6.06634C20.1348 7.3637 20.5883 8.8249 20.688 10.3548H17.1178C17.0796 9.07244 16.9209 7.83043 16.6516 6.67465C17.6456 6.51412 18.5618 6.30989 19.3668 6.06634ZM17.8657 4.13429C18.1248 4.39335 18.3668 4.66491 18.5925 4.94683C17.9018 5.13542 17.1327 5.29548 16.3064 5.4243C16.068 4.68489 15.7803 3.99322 15.4461 3.36433C15.1634 2.83229 14.855 2.35925 14.5253 1.94769C15.7629 2.42924 16.8985 3.16702 17.8657 4.13429ZM11.6452 11.6452H15.8243C15.7812 12.8599 15.623 14.0296 15.3599 15.109C14.1914 14.9638 12.9386 14.8757 11.6452 14.851V11.6452ZM11.6452 10.3548V7.08741C12.9345 7.07048 14.1914 6.99026 15.3687 6.85263C15.6319 7.94416 15.788 9.12705 15.8268 10.3548H11.6452ZM11.6452 1.38098H11.6452C12.6252 1.6555 13.5523 2.55046 14.3065 3.9698C14.572 4.4694 14.805 5.01472 15.0043 5.59609C13.9403 5.71262 12.8083 5.78124 11.6452 5.79693V1.38098ZM11.6452 20.544V16.1415C12.8106 16.1644 13.9379 16.2398 14.9926 16.3631C14.7959 16.9317 14.5668 17.4654 14.3066 17.9552C13.5524 19.3746 12.6253 20.2695 11.6452 20.544ZM17.8657 17.8658C16.8752 18.8562 15.7082 19.6058 14.4359 20.0863C14.7993 19.6499 15.138 19.1405 15.4461 18.5607C15.7735 17.9445 16.0562 17.2679 16.2917 16.5452C17.1281 16.6833 17.9019 16.854 18.5912 17.0548C18.3659 17.3361 18.1243 17.6071 17.8657 17.8658ZM19.362 15.9418C18.5613 15.6844 17.6433 15.4678 16.641 15.2969C16.9115 14.1505 17.0727 12.9181 17.1154 11.6452H20.6881C20.588 13.1783 20.133 14.6424 19.362 15.9418Z" fill="black"/>
</g>
<defs>
<clipPath id="clip0_107_2">
<rect width="22" height="22" fill="white"/>
</clipPath>
</defs>
</svg>
