<svg width="22" height="22" viewBox="0 0 22 22" fill="none" xmlns="http://www.w3.org/2000/svg">
<g clip-path="url(#clip0_82_78)">
<path d="M10.1096 12.1381C10.4106 12.1822 10.7112 12.2042 11.0104 12.2042C11.9831 12.2042 12.9372 11.9723 13.8105 11.519C14.0211 11.4096 14.1033 11.1503 13.9939 10.9396C13.8846 10.729 13.6252 10.6469 13.4146 10.7562C11.3776 11.8136 8.91757 11.4327 7.29327 9.80827C6.30315 8.81818 5.75787 7.50175 5.75787 6.10149C5.75787 4.70123 6.30315 3.38485 7.29327 2.39472C8.28331 1.40464 9.59974 0.859372 11 0.859372C12.4002 0.859372 13.7167 1.40464 14.7068 2.39477C16.3398 4.0277 16.7158 6.49702 15.6425 8.53927C15.5322 8.74935 15.613 9.00914 15.823 9.11952C16.0331 9.22999 16.2929 9.14909 16.4033 8.93905C16.9958 7.81152 17.2215 6.49285 17.0387 5.22592C16.8497 3.91517 16.2534 2.72601 15.3144 1.78711C14.162 0.634689 12.6298 0 11 0C9.3702 0 7.83798 0.634689 6.68557 1.78711C5.53315 2.93952 4.89846 4.47174 4.89846 6.10154C4.89846 7.73134 5.53315 9.26355 6.68557 10.416C7.62069 11.3511 8.80473 11.9466 10.1096 12.1381Z" fill="#C05000"/>
<path d="M15.6413 6.10638C15.6413 5.86907 15.4489 5.6767 15.2117 5.6767H14.8467C14.6094 5.6767 14.417 5.86907 14.417 6.10638C14.417 6.3437 14.6094 6.53607 14.8467 6.53607H15.2117C15.4489 6.53607 15.6413 6.3437 15.6413 6.10638Z" fill="#C05000"/>
<path d="M6.78835 5.66705C6.55107 5.66705 6.35866 5.85942 6.35866 6.09674C6.35866 6.33406 6.55107 6.52643 6.78835 6.52643H7.15328C7.39055 6.52643 7.58297 6.33406 7.58297 6.09674C7.58297 5.85942 7.39055 5.66705 7.15328 5.66705H6.78835Z" fill="#C05000"/>
<path d="M10.5655 9.94824V10.3132C10.5655 10.5505 10.7579 10.7429 10.9952 10.7429C11.2325 10.7429 11.4249 10.5505 11.4249 10.3132V9.94824C11.4249 9.71093 11.2325 9.51855 10.9952 9.51855C10.7579 9.51855 10.5655 9.71093 10.5655 9.94824Z" fill="#C05000"/>
<path d="M13.5065 6.10156C13.5065 5.86424 13.3141 5.67187 13.0768 5.67187H11.4345V1.88989C11.4345 1.65258 11.2421 1.46021 11.0048 1.46021C10.7675 1.46021 10.5751 1.65258 10.5751 1.88989V6.10156C10.5751 6.33888 10.7681 6.53125 11.0055 6.53125H13.0768C13.3141 6.53125 13.5065 6.33888 13.5065 6.10156Z" fill="#C05000"/>
<path d="M14.7069 9.80845C14.627 9.88838 14.581 9.99924 14.581 10.1122C14.581 10.2253 14.627 10.3361 14.7069 10.416C14.7868 10.496 14.8973 10.5419 15.0107 10.5419C15.1237 10.5419 15.2346 10.496 15.3145 10.416C15.3944 10.3361 15.4404 10.2253 15.4404 10.1122C15.4404 9.99924 15.3944 9.88838 15.3145 9.80845C15.2346 9.7281 15.1237 9.68256 15.0107 9.68256C14.8977 9.68256 14.7868 9.7281 14.7069 9.80845Z" fill="#C05000"/>
<path d="M21.5324 11.413C21.1851 10.9909 20.6944 10.7293 20.1504 10.6763C19.6063 10.6235 19.0744 10.7854 18.6522 11.1326C18.2302 11.4797 17.9685 11.9706 17.9155 12.5146L17.906 12.6124C17.8531 13.1564 18.0151 13.6885 18.3623 14.1105C18.3671 14.1164 18.3722 14.1218 18.377 14.1276C18.1949 14.2071 18.023 14.3109 17.8674 14.4377C17.8613 14.4426 17.8553 14.4478 17.8495 14.453L17.7009 14.5884C17.6904 14.598 17.6803 14.608 17.6709 14.6186L15.7023 16.8045H14.0987C13.4089 16.8045 12.8476 17.3657 12.8476 18.0556C12.8476 18.1924 12.87 18.3239 12.9108 18.4473H9.08923C9.13001 18.3239 9.15239 18.1924 9.15239 18.0556C9.15239 17.3657 8.59114 16.8045 7.90132 16.8045H6.29778L4.32917 14.6186C4.31967 14.608 4.30966 14.598 4.29918 14.5884L4.15051 14.453C4.14471 14.4478 4.13878 14.4426 4.13268 14.4377C3.97683 14.3107 3.80461 14.2068 3.62212 14.1272C3.96432 13.7204 4.14952 13.182 4.09405 12.6124L4.08451 12.5145C4.03157 11.9705 3.76993 11.4797 3.34781 11.1325C2.92573 10.7853 2.39356 10.6235 1.84967 10.6762C1.30569 10.7292 0.814899 10.9908 0.46767 11.4129C0.120484 11.835 -0.0415935 12.3671 0.0113868 12.9111L0.0209258 13.0089C0.0913513 13.7317 0.531822 14.3308 1.13622 14.6369C1.10073 14.6748 1.06601 14.7135 1.03296 14.7541C0.612947 15.2699 0.44928 15.9394 0.584029 16.5908L1.63199 21.6572C1.67401 21.8602 1.85285 21.9999 2.05231 21.9999C2.08118 21.9999 2.11049 21.997 2.13979 21.9909C2.37217 21.9428 2.52161 21.7155 2.47357 21.4831L1.42553 16.4168C1.34337 16.0196 1.4431 15.6113 1.69928 15.2968C1.95541 14.9823 2.335 14.8018 2.74066 14.8018C3.04544 14.8018 3.34343 14.9066 3.58117 15.0971L3.70479 15.2096L5.78714 17.5219C5.86861 17.6123 5.98466 17.664 6.10644 17.664H7.90128C8.11724 17.664 8.29298 17.8397 8.29298 18.0557C8.29298 18.2717 8.11724 18.4474 7.90128 18.4474H5.33455L3.60927 16.5002C3.45197 16.3226 3.18032 16.3062 3.00273 16.4636C2.8251 16.6209 2.80868 16.8925 2.96608 17.0701L4.7115 19.04V21.5702C4.7115 21.8075 4.90392 21.9999 5.14119 21.9999H9.27546C9.51273 21.9999 9.70514 21.8075 9.70514 21.5702C9.70514 21.333 9.51273 21.1405 9.27546 21.1405H5.57088V19.3068H7.90123H14.0987H16.429V21.1405H12.7131C12.4758 21.1405 12.2834 21.333 12.2834 21.5702C12.2834 21.8075 12.4758 21.9999 12.7131 21.9999H16.8587C17.096 21.9999 17.2884 21.8075 17.2884 21.5702V19.0401L19.0338 17.0702C19.1912 16.8925 19.1748 16.621 18.9972 16.4636C18.8196 16.3062 18.5479 16.3227 18.3906 16.5003L16.6654 18.4474H14.0987C13.8827 18.4474 13.707 18.2717 13.707 18.0557C13.707 17.8398 13.8827 17.664 14.0987 17.664H15.8935C16.0153 17.664 16.1313 17.6124 16.2128 17.5219L18.2952 15.2096L18.4188 15.0971C18.6565 14.9066 18.9545 14.8019 19.2593 14.8019C19.665 14.8019 20.0445 14.9823 20.3007 15.2969C20.5569 15.6114 20.6566 16.0196 20.5744 16.4169L19.5265 21.4832C19.4784 21.7156 19.6278 21.9429 19.8603 21.991C19.8896 21.9971 19.9189 22 19.9477 22C20.1472 22 20.3261 21.8603 20.3681 21.6572L21.416 16.5909C21.5508 15.9395 21.3871 15.27 20.9671 14.7542C20.934 14.7136 20.8992 14.6748 20.8637 14.6369C21.4681 14.3308 21.9087 13.7318 21.9791 13.009L21.9887 12.9111C22.0416 12.3671 21.8796 11.8351 21.5324 11.413ZM0.866676 12.8279C0.835954 12.5123 0.929969 12.2038 1.13132 11.9589C1.33271 11.7141 1.61738 11.5623 1.93286 11.5316C1.97209 11.5278 2.01114 11.5259 2.05007 11.5259C2.32413 11.5259 2.58744 11.6199 2.80185 11.7963C3.04664 11.9977 3.19841 12.2824 3.22909 12.5978L3.23863 12.6957C3.30209 13.347 2.82377 13.9285 2.17245 13.9919C1.52104 14.0552 0.939637 13.577 0.876215 12.9257L0.866676 12.8279ZM21.1333 12.8279L21.1238 12.9257C21.0604 13.577 20.4795 14.0553 19.8275 13.9919C19.1762 13.9285 18.6979 13.347 18.7614 12.6957L18.7709 12.5978C18.8016 12.2823 18.9534 11.9976 19.1981 11.7963C19.4126 11.6199 19.6759 11.5259 19.9499 11.5259C19.9888 11.5259 20.0279 11.5278 20.0671 11.5316C20.3827 11.5624 20.6673 11.7141 20.8687 11.9589C21.07 12.2038 21.164 12.5123 21.1333 12.8279Z" fill="#C05000"/>
<path d="M10.9944 21.1406C10.8814 21.1406 10.7705 21.1865 10.6906 21.2665C10.6107 21.3464 10.5647 21.4572 10.5647 21.5703C10.5647 21.6833 10.6107 21.7941 10.6906 21.874C10.771 21.9539 10.8814 21.9999 10.9944 21.9999C11.1079 21.9999 11.2183 21.954 11.2982 21.874C11.3785 21.7941 11.4241 21.6833 11.4241 21.5703C11.4241 21.4572 11.3785 21.3464 11.2982 21.2665C11.2183 21.1865 11.1079 21.1406 10.9944 21.1406Z" fill="#C05000"/>
</g>
<defs>
<clipPath id="clip0_82_78">
<rect width="22" height="22" fill="white"/>
</clipPath>
</defs>
</svg>
