<svg width="22" height="22" viewBox="0 0 22 22" fill="none" xmlns="http://www.w3.org/2000/svg">
<g clip-path="url(#clip0_107_26)">
<path d="M21.3555 20.7108H20.668V9.75406C20.668 9.47661 20.4905 9.23036 20.2273 9.14261L12.9338 6.71144V4.512C12.9338 4.24332 12.7672 4.00282 12.5156 3.9085L2.20335 0.0414033C1.78243 -0.116421 1.3325 0.195231 1.3325 0.644899V20.7109H0.645001C0.289048 20.7109 0.000469685 20.9995 0.000469685 21.3554C0.000469685 21.7114 0.289048 21.9999 0.645001 21.9999C0.789763 21.9999 21.0762 21.9999 21.3555 21.9999C21.7115 21.9999 22 21.7114 22 21.3554C22 20.9995 21.7115 20.7108 21.3555 20.7108ZM6.48862 20.7108H5.1996V18.1327H6.48862V20.7108ZM9.0667 20.7108H7.77768V18.1327H9.0667V20.7108ZM11.6448 7.17598V20.7108H10.3558V17.4883C10.3558 17.1323 10.0672 16.8437 9.71123 16.8437H4.55507C4.19912 16.8437 3.91054 17.1323 3.91054 17.4883V20.7108H2.62152V1.57491L11.6448 4.95862V7.17598ZM16.8009 20.7108H15.5119V18.1327H16.8009V20.7108ZM19.379 20.7108H18.09V17.4883C18.09 17.1323 17.8014 16.8437 17.4454 16.8437H14.8674C14.5114 16.8437 14.2228 17.1323 14.2228 17.4883V20.7108H12.9338V8.0702L19.379 10.2186V20.7108Z" fill="black"/>
<path d="M5.84388 14.2657H4.55486C4.19891 14.2657 3.91033 14.5543 3.91033 14.9103C3.91033 15.2662 4.19886 15.5548 4.55486 15.5548H5.84388C6.19983 15.5548 6.48841 15.2662 6.48841 14.9103C6.48841 14.5543 6.19983 14.2657 5.84388 14.2657Z" fill="black"/>
<path d="M9.71098 14.2657H8.42196C8.06601 14.2657 7.77743 14.5543 7.77743 14.9103C7.77743 15.2662 8.06596 15.5548 8.42196 15.5548H9.71098C10.0669 15.5548 10.3555 15.2662 10.3555 14.9103C10.3555 14.5543 10.0669 14.2657 9.71098 14.2657Z" fill="black"/>
<path d="M5.84388 11.6877H4.55486C4.19891 11.6877 3.91033 11.9763 3.91033 12.3322C3.91033 12.6882 4.19886 12.9767 4.55486 12.9767H5.84388C6.19983 12.9767 6.48841 12.6882 6.48841 12.3322C6.48841 11.9763 6.19983 11.6877 5.84388 11.6877Z" fill="black"/>
<path d="M9.71098 11.6877H8.42196C8.06601 11.6877 7.77743 11.9763 7.77743 12.3322C7.77743 12.6882 8.06596 12.9767 8.42196 12.9767H9.71098C10.0669 12.9767 10.3555 12.6882 10.3555 12.3322C10.3555 11.9763 10.0669 11.6877 9.71098 11.6877Z" fill="black"/>
<path d="M17.4452 14.2657H14.8671C14.5111 14.2657 14.2226 14.5543 14.2226 14.9103C14.2226 15.2662 14.5111 15.5548 14.8671 15.5548H17.4452C17.8011 15.5548 18.0897 15.2662 18.0897 14.9103C18.0897 14.5543 17.8011 14.2657 17.4452 14.2657Z" fill="black"/>
<path d="M17.4452 11.6877H14.8671C14.5111 11.6877 14.2226 11.9763 14.2226 12.3322C14.2226 12.6882 14.5111 12.9767 14.8671 12.9767H17.4452C17.8011 12.9767 18.0897 12.6882 18.0897 12.3322C18.0897 11.9763 17.8011 11.6877 17.4452 11.6877Z" fill="black"/>
<path d="M5.84388 9.10962H4.55486C4.19891 9.10962 3.91033 9.3982 3.91033 9.75415C3.91033 10.1101 4.19886 10.3987 4.55486 10.3987H5.84388C6.19983 10.3987 6.48841 10.1101 6.48841 9.75415C6.48837 9.3982 6.19983 9.10962 5.84388 9.10962Z" fill="black"/>
<path d="M9.71098 9.10962H8.42196C8.06601 9.10962 7.77743 9.3982 7.77743 9.75415C7.77743 10.1101 8.06596 10.3987 8.42196 10.3987H9.71098C10.0669 10.3987 10.3555 10.1101 10.3555 9.75415C10.3555 9.3982 10.0669 9.10962 9.71098 9.10962Z" fill="black"/>
<path d="M5.84388 6.53156H4.55486C4.19891 6.53156 3.91033 6.82013 3.91033 7.17609C3.91033 7.53204 4.19886 7.82062 4.55486 7.82062H5.84388C6.19983 7.82062 6.48841 7.53204 6.48841 7.17609C6.48837 6.82013 6.19983 6.53156 5.84388 6.53156Z" fill="black"/>
<path d="M9.71098 6.53156H8.42196C8.06601 6.53156 7.77743 6.82013 7.77743 7.17609C7.77743 7.53204 8.06596 7.82062 8.42196 7.82062H9.71098C10.0669 7.82062 10.3555 7.53204 10.3555 7.17609C10.3555 6.82013 10.0669 6.53156 9.71098 6.53156Z" fill="black"/>
</g>
<defs>
<clipPath id="clip0_107_26">
<rect width="22" height="22" fill="white"/>
</clipPath>
</defs>
</svg>
