<!DOCTYPE svg PUBLIC "-//W3C//DTD SVG 1.1//EN" "http://www.w3.org/Graphics/SVG/1.1/DTD/svg11.dtd">

<!-- Uploaded to: SVG Repo, www.svgrepo.com, Transformed by: SVG Repo Mixer Tools -->
<svg fill="#EEE0FF" xmlns="http://www.w3.org/2000/svg" width="128px" height="128px" viewBox="0 0 100 100" xml:space="preserve">

<g id="SVGRepo_bgCarrier" stroke-width="0"/>

<g id="SVGRepo_tracerCarrier" stroke-linecap="round" stroke-linejoin="round"/>

<g id="SVGRepo_iconCarrier"> <g> <g> <circle cx="50" cy="29" r="9"/> </g> <g> <path d="M78,44H50H22c-2,0-2.8,2.5-1.1,3.6L35.5,57c0.7,0.5,1.1,1.4,0.8,2.2l-5.5,18.3c-0.6,2,2,3.4,3.5,1.9l14.2-15 c0.8-0.9,2.2-0.9,3,0l14.2,15c1.4,1.5,4,0.1,3.5-1.9l-5.5-18.3c-0.2-0.8,0.1-1.7,0.8-2.2l14.6-9.4C80.8,46.5,80,44,78,44z"/> </g> </g> </g>

</svg>