<svg width="107" height="107" viewBox="0 0 107 107" fill="none" xmlns="http://www.w3.org/2000/svg">
<g clip-path="url(#clip0_35_31)">
<path d="M69.3318 57.9411L60.3704 66.9329C56.7363 70.5796 50.3423 70.6582 46.6297 66.9329L37.6678 57.9411L5.48083 90.2325C6.67894 90.7865 7.99993 91.1172 9.40431 91.1172H97.5957C99.0001 91.1172 100.321 90.787 101.518 90.2327L69.3318 57.9411Z" fill="#85BE3F"/>
<path d="M97.5957 15.8828H9.40432C7.99994 15.8828 6.67895 16.2134 5.48126 16.7674L39.8753 51.2756C39.8776 51.2779 39.8803 51.2783 39.8826 51.2806C39.8849 51.2829 39.8853 51.286 39.8853 51.286L51.0687 62.5064C52.2566 63.6943 54.7439 63.6943 55.9318 62.5064L67.1128 51.2879C67.1128 51.2879 67.1156 51.2829 67.1179 51.2806C67.1179 51.2806 67.1229 51.2779 67.1252 51.2756L101.518 16.7672C100.321 16.213 99.0001 15.8828 97.5957 15.8828Z" fill="#85BE3F"/>
<path d="M1.0002 21.1517C0.380351 22.4052 0 23.7966 0 25.2871V81.7129C0 83.2034 0.379934 84.5948 0.99999 85.8483L33.2427 53.501L1.0002 21.1517Z" fill="#85BE3F"/>
<path d="M106 21.1513L73.7575 53.501L106 85.8487C106.62 84.5952 107 83.2038 107 81.7129V25.2871C107 23.7962 106.62 22.4048 106 21.1513Z" fill="#85BE3F"/>
</g>
<defs>
<clipPath id="clip0_35_31">
<rect width="107" height="107" fill="white"/>
</clipPath>
</defs>
</svg>
