<svg width="108" height="108" viewBox="0 0 108 108" fill="none" xmlns="http://www.w3.org/2000/svg">
<g clip-path="url(#clip0_1_24)">
<path d="M95.5814 66.4072L83.7243 81.9128C81.3517 85.0151 77.6692 86.835 73.7637 86.835H51.7472C50.016 86.835 48.6124 85.4314 48.6124 83.7002C48.6124 81.969 50.016 80.5654 51.7472 80.5654H70.8293C74.9307 80.5654 78.3653 77.2089 78.2869 73.1082C78.2109 69.1344 74.9658 65.9365 70.9738 65.9365H49.0304C42.7301 59.8787 33.0078 59.1698 25.8954 64.25L23.5343 65.9365V101.464H44.4327H48.6124H78.0508C84.4507 101.464 90.4114 98.2096 93.8722 92.8261L106.106 73.7958C106.773 72.7578 107.128 71.5501 107.128 70.316C107.128 64.1623 99.3193 61.5188 95.5814 66.4072Z" fill="#FFEAE3"/>
<path d="M14.13 59.667H3.26282C1.53159 59.667 0.128052 61.0705 0.128052 62.8018V104.599C0.128052 106.33 1.53159 107.733 3.26282 107.733H14.13C15.8612 107.733 17.2648 106.33 17.2648 104.599V62.8018C17.2648 61.0705 15.8612 59.667 14.13 59.667Z" fill="#FFEAE3"/>
<path d="M59.9624 18.0593C59.3245 18.5483 58.973 19.2887 58.8522 19.9309C58.6853 20.8168 58.8965 21.6398 59.3908 22.0273C59.5649 22.1637 59.7567 22.2979 59.9624 22.4298V18.0593Z" fill="#FFEAE3"/>
<path d="M62.1964 52.9795C76.6007 52.9795 88.3195 41.2607 88.3195 26.8564C88.3195 12.4522 76.6007 0.733398 62.1964 0.733398C47.7922 0.733398 36.0734 12.4522 36.0734 26.8564C36.0734 41.2607 47.7922 52.9795 62.1964 52.9795ZM54.2887 35.3974C54.9202 34.4319 56.2157 34.1602 57.1816 34.7926C58.3103 35.531 59.0178 35.8511 59.9624 35.9838V27.1582C58.6276 26.5465 57.6299 25.9578 56.8113 25.3156C55.0769 23.9553 54.2851 21.5955 54.7447 19.1564C55.2454 16.4986 57.0955 14.3838 59.5726 13.6378C59.7039 13.5983 59.8336 13.5621 59.9624 13.528V12.2275C59.9624 11.0735 60.8982 10.1377 62.0522 10.1377C63.2062 10.1377 64.1421 11.0735 64.1421 12.2275V13.299C66.1711 13.6503 67.6051 14.6492 68.2998 15.4465C69.058 16.3167 68.9669 17.6369 68.0967 18.3949C67.2311 19.1489 65.9205 19.0632 65.1602 18.2057C65.1126 18.1575 64.7805 17.8377 64.1421 17.6022V24.3549C64.513 24.4926 64.8837 24.6262 65.2476 24.7549C68.9211 26.0535 70.9643 29.4541 70.332 33.2169C69.8402 36.1416 67.6145 39.1077 64.1421 39.9886V41.4854C64.1421 42.6394 63.2062 43.5752 62.0522 43.5752C60.8982 43.5752 59.9624 42.6394 59.9624 41.4854V40.1892C58.275 40.0434 56.8763 39.5876 54.8935 38.2904C53.9275 37.6584 53.6569 36.3634 54.2887 35.3974Z" fill="#FFEAE3"/>
<path d="M66.21 32.5241C66.3473 31.7072 66.4035 29.7605 64.1418 28.8082V35.521C65.3174 34.8476 66.0196 33.6568 66.21 32.5241Z" fill="#FFEAE3"/>
</g>
<defs>
<clipPath id="clip0_1_24">
<rect width="107" height="107" fill="white" transform="translate(0.128052 0.733398)"/>
</clipPath>
</defs>
</svg>
